<svg width="20" height="20" viewBox="0 0 20 20" fill="none" xmlns="http://www.w3.org/2000/svg">
<path d="M4 1C4 0.447715 4.44772 0 5 0H15C15.5523 0 16 0.447715 16 1C16 1.55228 15.5523 2 15 2H5C4.44772 2 4 1.55228 4 1Z" fill="#1C77FF"/>
<path fill-rule="evenodd" clip-rule="evenodd" d="M0 8.35328C0 7.0536 1.0536 6 2.35328 6H17.6467C18.9464 6 20 7.0536 20 8.35328V17.6467C20 18.9464 18.9464 20 17.6467 20H2.35328C1.0536 20 0 18.9464 0 17.6467V8.35328ZM2.35328 8C2.15817 8 2 8.15817 2 8.35328V17.6467C2 17.8418 2.15817 18 2.35328 18H17.6467C17.8418 18 18 17.8418 18 17.6467V8.35328C18 8.15817 17.8418 8 17.6467 8H2.35328Z" fill="#1C77FF"/>
<path d="M3 3C2.44772 3 2 3.44772 2 4C2 4.55228 2.44772 5 3 5H17C17.5523 5 18 4.55228 18 4C18 3.44772 17.5523 3 17 3H3Z" fill="#1C77FF"/>
</svg>
